<?xml version="1.0" encoding="utf-8"?>
<!-- Generator: Adobe Illustrator 24.1.2, SVG Export Plug-In . SVG Version: 6.00 Build 0)  -->
<svg version="1.1" id="Layer_1" xmlns="http://www.w3.org/2000/svg" xmlns:xlink="http://www.w3.org/1999/xlink" x="0px" y="0px"
	 viewBox="0 0 1300 459.5" style="enable-background:new 0 0 1300 459.5;" xml:space="preserve">
<style type="text/css">
	.st0{fill:#F0F0F0;}
	.st1{fill:none;stroke:#888888;stroke-width:2;stroke-miterlimit:10;}
	.st2{fill:#FFFFFF;stroke:#001E64;stroke-width:2;stroke-miterlimit:10;}
	.st3{fill:#001E64;}
	.st4{font-family:'Rubik-Medium';}
	.st5{font-size:24px;}
	.st6{fill:#FFFFFF;}
	.st7{fill:#0185FD;stroke:#001E64;stroke-width:2;stroke-miterlimit:10;}
	.st8{fill:none;stroke:#001E64;stroke-width:2;stroke-miterlimit:10;}
	.st9{fill:none;stroke:#001E64;stroke-width:6;stroke-miterlimit:10;}
	.st10{font-size:15px;}
	.st11{font-size:13px;}
	.st12{fill:#888888;}
	.st13{fill:#E3F2FE;}
	.st14{fill:#2BEDA7;}
	.st15{fill:#0185FD;}
	.st16{font-family:'RobotoMono-Medium';}
	.st17{font-size:14px;}
</style>
<g>
	<path class="st0" d="M583.9,49H184.3c-5.5,0-10,4.5-10,10v372.5c0,5.5,4.5,10,10,10h399.6c5.5,0,10-4.5,10-10V59
		C593.9,53.5,589.4,49,583.9,49z"/>
	<path class="st1" d="M583.9,49H184.3c-5.5,0-10,4.5-10,10v372.5c0,5.5,4.5,10,10,10h399.6c5.5,0,10-4.5,10-10V59
		C593.9,53.5,589.4,49,583.9,49z"/>
</g>
<path class="st2" d="M563.9,89v30c0,5.5-4.5,10-10,10H212.2c-5.5,0-10-4.5-10-10V89c0-5.5,4.5-10,10-10h341.8
	C559.4,79,563.9,83.5,563.9,89z"/>
<g>
	<text transform="matrix(1 0 0 1 253.7113 110.8158)" class="st3 st4 st5">Multi-Cluster Gateway</text>
</g>
<g>
	<path class="st0" d="M1115.7,169H716.1c-5.5,0-10,4.5-10,10v252.5c0,5.5,4.5,10,10,10h399.6c5.5,0,10-4.5,10-10V179
		C1125.7,173.5,1121.2,169,1115.7,169z"/>
	<path class="st1" d="M1115.7,169H716.1c-5.5,0-10,4.5-10,10v252.5c0,5.5,4.5,10,10,10h399.6c5.5,0,10-4.5,10-10V179
		C1125.7,173.5,1121.2,169,1115.7,169z"/>
</g>
<path class="st2" d="M1099.5,204v30c0,5.5-4.5,10-10,10H747.8c-5.5,0-10-4.5-10-10v-30c0-5.5,4.5-10,10-10h341.8
	C1095.1,194,1099.5,198.5,1099.5,204z"/>
<g>
	<text transform="matrix(1 0 0 1 789.3314 225.8161)" class="st3 st4 st5">Multi-Cluster Gateway</text>
</g>
<g>
	<path class="st6" d="M553.9,269H212.2c-5.5,0-10-4.5-10-10v-80c0-5.5,4.5-10,10-10h341.8c5.5,0,10,4.5,10,10v80
		C563.9,264.5,559.4,269,553.9,269z"/>
	<path class="st1" d="M553.9,269H212.2c-5.5,0-10-4.5-10-10v-80c0-5.5,4.5-10,10-10h341.8c5.5,0,10,4.5,10,10v80
		C563.9,264.5,559.4,269,553.9,269z"/>
</g>
<path class="st2" d="M529.5,194v50c0,5.5-4.5,10-10,10H413c-5.5,0-10-4.5-10-10v-50c0-5.5,4.5-10,10-10h106.5
	C525,184,529.5,188.5,529.5,194z"/>
<text transform="matrix(1 0 0 1 432.5287 225.8158)" class="st3 st4 st5">Proxy</text>
<path class="st7" d="M363,194v50c0,5.5-4.5,10-10,10H246.6c-5.5,0-10-4.5-10-10v-50c0-5.5,4.5-10,10-10H353
	C358.6,184,363,188.5,363,194z"/>
<g>
	<text transform="matrix(1 0 0 1 256.3397 213.8158)"><tspan x="0" y="0" class="st6 st4 st5">Service</tspan><tspan x="35.1" y="24" class="st6 st4 st5">A</tspan></text>
</g>
<g>
	<g>
		<g>
			<line class="st8" x1="397.3" y1="204.3" x2="363" y2="204.3"/>
			<g>
				<polygon class="st3" points="396.1,200.3 403,204.3 396.1,208.3 				"/>
			</g>
		</g>
	</g>
	<g>
		<g>
			<line class="st8" x1="403" y1="233.7" x2="368.8" y2="233.7"/>
			<g>
				<polygon class="st3" points="369.9,229.7 363,233.7 369.9,237.7 				"/>
			</g>
		</g>
	</g>
</g>
<g>
	<path class="st6" d="M1089.5,411.5H747.8c-5.5,0-10-4.5-10-10v-80c0-5.5,4.5-10,10-10h341.8c5.5,0,10,4.5,10,10v80
		C1099.5,407,1095.1,411.5,1089.5,411.5z"/>
	<path class="st1" d="M1089.5,411.5H747.8c-5.5,0-10-4.5-10-10v-80c0-5.5,4.5-10,10-10h341.8c5.5,0,10,4.5,10,10v80
		C1099.5,407,1095.1,411.5,1089.5,411.5z"/>
</g>
<path class="st2" d="M1065.1,336.5v50c0,5.5-4.5,10-10,10H948.7c-5.5,0-10-4.5-10-10v-50c0-5.5,4.5-10,10-10h106.5
	C1060.6,326.5,1065.1,331,1065.1,336.5z"/>
<text transform="matrix(1 0 0 1 968.1488 368.2896)" class="st3 st4 st5">Proxy</text>
<path class="st7" d="M898.7,336.5v50c0,5.5-4.5,10-10,10H782.2c-5.5,0-10-4.5-10-10v-50c0-5.5,4.5-10,10-10h106.5
	C894.2,326.5,898.7,331,898.7,336.5z"/>
<g>
	<text transform="matrix(1 0 0 1 791.9608 356.2896)"><tspan x="0" y="0" class="st6 st4 st5">Service</tspan><tspan x="35.3" y="24" class="st6 st4 st5">C</tspan></text>
</g>
<g>
	<g>
		<g>
			<line class="st8" x1="932.9" y1="346.7" x2="898.7" y2="346.7"/>
			<g>
				<polygon class="st3" points="931.7,342.8 938.7,346.7 931.7,350.7 				"/>
			</g>
		</g>
	</g>
	<g>
		<g>
			<line class="st8" x1="938.7" y1="376.2" x2="904.4" y2="376.2"/>
			<g>
				<polygon class="st3" points="905.6,372.2 898.7,376.2 905.6,380.2 				"/>
			</g>
		</g>
	</g>
</g>
<g>
	<path class="st6" d="M553.9,411.5H212.2c-5.5,0-10-4.5-10-10v-80c0-5.5,4.5-10,10-10h341.8c5.5,0,10,4.5,10,10v80
		C563.9,407,559.4,411.5,553.9,411.5z"/>
	<path class="st1" d="M553.9,411.5H212.2c-5.5,0-10-4.5-10-10v-80c0-5.5,4.5-10,10-10h341.8c5.5,0,10,4.5,10,10v80
		C563.9,407,559.4,411.5,553.9,411.5z"/>
</g>
<path class="st2" d="M529.5,336.5v50c0,5.5-4.5,10-10,10H413c-5.5,0-10-4.5-10-10v-50c0-5.5,4.5-10,10-10h106.5
	C525,326.5,529.5,331,529.5,336.5z"/>
<text transform="matrix(1 0 0 1 432.5287 368.2894)" class="st3 st4 st5">Proxy</text>
<path class="st7" d="M363,336.5v50c0,5.5-4.5,10-10,10H246.6c-5.5,0-10-4.5-10-10v-50c0-5.5,4.5-10,10-10H353
	C358.6,326.5,363,331,363,336.5z"/>
<g>
	<text transform="matrix(1 0 0 1 256.3397 356.2895)"><tspan x="0" y="0" class="st6 st4 st5">Service</tspan><tspan x="35.2" y="24" class="st6 st4 st5">B</tspan></text>
</g>
<g>
	<g>
		<g>
			<line class="st8" x1="397.3" y1="346.7" x2="363" y2="346.7"/>
			<g>
				<polygon class="st3" points="396.1,342.8 403,346.7 396.1,350.7 				"/>
			</g>
		</g>
	</g>
	<g>
		<g>
			<line class="st8" x1="403" y1="376.2" x2="368.8" y2="376.2"/>
			<g>
				<polygon class="st3" points="369.9,372.2 363,376.2 369.9,380.2 				"/>
			</g>
		</g>
	</g>
</g>
<g>
	<g>
		<line class="st9" x1="466.2" y1="317.4" x2="466.2" y2="254.8"/>
		<g>
			<polygon class="st3" points="472.2,315.6 466.2,326 460.2,315.6 			"/>
		</g>
	</g>
</g>
<g>
	<g>
		<line class="st9" x1="728.1" y1="219" x2="530.9" y2="219"/>
		<g>
			<polygon class="st3" points="726.3,213 736.7,219 726.3,225 			"/>
		</g>
	</g>
</g>
<g>
	<g>
		<line class="st9" x1="1001.9" y1="316.7" x2="1001.9" y2="244"/>
		<g>
			<polygon class="st3" points="1007.9,314.9 1001.9,325.3 995.9,314.9 			"/>
		</g>
	</g>
</g>
<g>
	<circle class="st3" cx="649.4" cy="219" r="12.5"/>
	<path class="st6" d="M653.4,215.7h-0.7v-1.3c0-1.8-1.5-3.3-3.3-3.3s-3.3,1.5-3.3,3.3v1.3h-0.7c-0.7,0-1.3,0.6-1.3,1.3v6.7
		c0,0.7,0.6,1.3,1.3,1.3h8c0.7,0,1.3-0.6,1.3-1.3V217C654.7,216.3,654.1,215.7,653.4,215.7z M649.4,221.7c-0.7,0-1.3-0.6-1.3-1.3
		c0-0.7,0.6-1.3,1.3-1.3s1.3,0.6,1.3,1.3C650.7,221.1,650.1,221.7,649.4,221.7z M651.4,215.7h-4.1v-1.3c0-1.1,0.9-2.1,2.1-2.1
		s2.1,0.9,2.1,2.1V215.7z"/>
</g>
<g>
	<text transform="matrix(1 0 0 1 407.218 294.9631)" class="st3 st4 st10">mTLS</text>
</g>
<g>
	<text transform="matrix(1 0 0 1 631.6392 202.2743)" class="st3 st4 st11">mTLS</text>
</g>
<g>
	<text transform="matrix(1 0 0 1 943.9755 279.7001)" class="st3 st4 st10">mTLS</text>
</g>
<g>
	<text transform="matrix(1 0 0 1 174.5209 32.0002)" class="st12 st4 st5">Cluster: west</text>
</g>
<g>
	<text transform="matrix(1 0 0 1 706.0775 151.9999)" class="st12 st4 st5">Cluster: east</text>
</g>
<g>
	<circle class="st3" cx="466.2" cy="290.4" r="12.5"/>
	<path class="st6" d="M470.2,287.1h-0.7v-1.3c0-1.8-1.5-3.3-3.3-3.3s-3.3,1.5-3.3,3.3v1.3h-0.7c-0.7,0-1.3,0.6-1.3,1.3v6.7
		c0,0.7,0.6,1.3,1.3,1.3h8c0.7,0,1.3-0.6,1.3-1.3v-6.7C471.5,287.7,470.9,287.1,470.2,287.1z M466.2,293.1c-0.7,0-1.3-0.6-1.3-1.3
		c0-0.7,0.6-1.3,1.3-1.3s1.3,0.6,1.3,1.3C467.5,292.5,466.9,293.1,466.2,293.1z M468.3,287.1h-4.1v-1.3c0-1.1,0.9-2.1,2.1-2.1
		c1.1,0,2.1,0.9,2.1,2.1V287.1z"/>
</g>
<g>
	<circle class="st3" cx="1001.9" cy="275.2" r="12.5"/>
	<path class="st6" d="M1005.9,271.8h-0.7v-1.3c0-1.8-1.5-3.3-3.3-3.3c-1.8,0-3.3,1.5-3.3,3.3v1.3h-0.7c-0.7,0-1.3,0.6-1.3,1.3v6.7
		c0,0.7,0.6,1.3,1.3,1.3h8c0.7,0,1.3-0.6,1.3-1.3v-6.7C1007.2,272.4,1006.6,271.8,1005.9,271.8z M1001.9,277.8
		c-0.7,0-1.3-0.6-1.3-1.3c0-0.7,0.6-1.3,1.3-1.3s1.3,0.6,1.3,1.3C1003.2,277.2,1002.6,277.8,1001.9,277.8z M1004,271.8h-4.1v-1.3
		c0-1.1,0.9-2.1,2.1-2.1c1.1,0,2.1,0.9,2.1,2.1V271.8z"/>
</g>
<g>
	
		<image style="overflow:visible;opacity:0.22;" width="160" height="45" xlink:href="28F01BEF.png"  transform="matrix(1 0 0 1 471 284.7)">
	</image>
	<g>
		<path class="st13" d="M485.3,320.6c-5,0-9.1-4.1-9.1-9.1v-21.9H613c5,0,9.1,4.1,9.1,9.1v12.8c0,5-4.1,9.1-9.1,9.1H485.3z"/>
		<path class="st3" d="M613,290.1c4.8,0,8.6,3.9,8.6,8.6v12.8c0,4.8-3.9,8.6-8.6,8.6H485.3c-4.8,0-8.6-3.9-8.6-8.6v-21.4H613
			 M613,289.1H476.6h-1v1v21.4c0,5.3,4.3,9.6,9.6,9.6H613c5.3,0,9.6-4.3,9.6-9.6v-12.8C622.6,293.4,618.3,289.1,613,289.1L613,289.1
			z"/>
	</g>
</g>
<g>
	
		<image style="overflow:visible;opacity:0.11;" width="264" height="59" xlink:href="28F01BED.png"  transform="matrix(1 0 0 1 1006 270.7)">
	</image>
	<g>
		<path class="st14" d="M1020.5,320.6c-5,0-9.1-4.1-9.1-9.1v-36.1h240.5c5,0,9.1,4.1,9.1,9.1v27c0,5-4.1,9.1-9.1,9.1H1020.5z"/>
		<path class="st3" d="M1251.9,275.8c4.8,0,8.6,3.9,8.6,8.6v27c0,4.8-3.9,8.6-8.6,8.6h-231.3c-4.8,0-8.6-3.9-8.6-8.6v-35.6H1251.9
			 M1251.9,274.8h-240h-1v1v35.6c0,5.3,4.3,9.6,9.6,9.6h231.3c5.3,0,9.6-4.3,9.6-9.6v-27C1261.5,279.1,1257.2,274.8,1251.9,274.8
			L1251.9,274.8z"/>
	</g>
</g>
<g>
	
		<image style="overflow:visible;opacity:0.11;" width="211" height="79" xlink:href="28F01BF3.png"  transform="matrix(1 0 0 1 642 224.7)">
	</image>
	<g>
		<path class="st14" d="M656,294.6c-5,0-9.1-4.1-9.1-9.1v-56h188.2c5,0,9.1,4.1,9.1,9.1v46.9c0,5-4.1,9.1-9.1,9.1H656z"/>
		<path class="st3" d="M835.1,229.9c4.8,0,8.6,3.9,8.6,8.6v46.9c0,4.8-3.9,8.6-8.6,8.6H656c-4.8,0-8.6-3.9-8.6-8.6v-55.5H835.1
			 M835.1,228.9H647.4h-1v1v55.5c0,5.3,4.3,9.6,9.6,9.6h179.1c5.3,0,9.6-4.3,9.6-9.6v-46.9C844.7,233.3,840.4,228.9,835.1,228.9
			L835.1,228.9z"/>
	</g>
</g>
<g>
	<text transform="matrix(1 0 0 1 485.6997 309.8025)"><tspan x="0" y="0" class="st15 st16 st17">A</tspan><tspan x="8.4" y="0" class="st3 st16 st17"> connects to </tspan><tspan x="117.6" y="0" class="st15 st16 st17">B</tspan></text>
</g>
<g>
	<text transform="matrix(1 0 0 1 1022.9238 295.2105)"><tspan x="0" y="0" class="st3 st16 st17">Gateway automatically </tspan><tspan x="0" y="16" class="st3 st16 st17">establishes connection to </tspan><tspan x="218.4" y="16" class="st15 st16 st17">C</tspan></text>
</g>
<text transform="matrix(1 0 0 1 658.4934 251.4359)"><tspan x="0" y="0" class="st15 st16 st17">A </tspan><tspan x="16.8" y="0" class="st3 st16 st17">connects to </tspan><tspan x="117.6" y="0" class="st15 st16 st17">C.east</tspan><tspan x="168" y="0" class="st3 st16 st17">,</tspan><tspan x="0" y="16" class="st3 st16 st17">automatically routed </tspan><tspan x="0" y="32" class="st3 st16 st17">through the gateway</tspan></text>
</svg>
