<?xml version="1.0" encoding="UTF-8"?>
<svg width="30px" height="30px" viewBox="0 0 783 783" version="1.1" xmlns="http://www.w3.org/2000/svg" xmlns:xlink="http://www.w3.org/1999/xlink">
    <!-- Generator: Sketch 60 (88103) - https://sketch.com -->
    <title>Slice</title>
    <desc>Created with Sketch.</desc>
    <g id="Page-1" stroke="none" stroke-width="1" fill="none" fill-rule="evenodd">
        <g id="chart-network-duotone" transform="translate(71.000000, 136.000000)" fill-rule="nonzero">
            <path d="M64,240 C28.653776,240 0,268.653776 0,304 C0,339.346224 28.653776,368 64,368 C99.346224,368 128,339.346224 128,304 C127.966922,268.667486 99.3325137,240.033078 64,240 Z M152,320 L200,320 L200,288 L152,288 L152,320 Z M446.4,213.2 L465.6,238.8 L513.6,202.8 L494.4,177.2 L446.4,213.2 Z M576,64 C540.653776,64 512,92.653776 512,128 C512,163.346224 540.653776,192 576,192 C611.346224,192 640,163.346224 640,128 C639.966922,92.6674863 611.332514,64.0330777 576,64 L576,64 Z" id="Shape" fill="#24244C"></path>
            <path d="M576,384 C562.161781,384.067719 548.720252,388.630118 537.7,397 L441.7,339.4 C445.739808,327.99413 447.868442,315.999447 448,303.9 C448.015928,274.190873 436.221077,245.693979 415.213549,224.686451 C394.206021,203.678923 365.709127,191.884072 336,191.9 C327.783168,191.940815 319.597492,192.913703 311.6,194.8 L270.8,107.4 C291.271501,85.1640431 293.344454,51.6194336 275.766486,27.0321371 C258.188517,2.44484054 225.777334,-6.44634463 198.114143,5.73018838 C170.450951,17.9067214 155.11758,47.8136719 161.377681,77.3827649 C167.637781,106.951858 193.775608,128.078902 224,128 C225.1,128 226.1,127.7 227.2,127.7 L268.2,215.5 C241.5,235.9 224,267.8 224,304 C223.880746,349.890069 251.8384,391.184802 294.490414,408.117563 C337.142427,425.050324 385.811061,414.176069 417.2,380.7 L513,438.2 C508.952921,464.623058 521.788571,490.771317 545.167973,503.731272 C568.547375,516.691228 597.524319,513.721036 617.788336,496.287549 C638.052353,478.854061 645.316332,450.645553 635.992906,425.592996 C626.66948,400.54044 602.731138,383.944021 576,384 L576,384 Z M336,352 C309.490332,352 288,330.509668 288,304 C288,277.490332 309.490332,256 336,256 C362.509668,256 384,277.490332 384,304 C384,330.509668 362.509668,352 336,352 Z" id="Shape" fill="#FF4D67"></path>
        </g>
    </g>
</svg>
